<svg xmlns="http://www.w3.org/2000/svg" viewBox="0 0 500 500"><!--Destination--><g id="freepik--Shadow--inject-1--inject-11"><ellipse cx="255.27" cy="397.03" rx="59.67" ry="12.35" style="fill:#263238"></ellipse></g><g id="freepik--Globe--inject-1--inject-11"><circle cx="255.27" cy="238.29" r="132.07" transform="translate(-93.73 250.29) rotate(-45)" style="fill:#fff;stroke:#263238;stroke-miterlimit:10"></circle><path d="M255.27,356.35A132.08,132.08,0,0,1,123.38,231.28c-.12,2.32-.19,4.66-.19,7a132.08,132.08,0,0,0,264.15,0q0-3.53-.18-7A132.08,132.08,0,0,1,255.27,356.35Z" style="fill:#263238;stroke:#263238;stroke-miterlimit:10"></path><polygon points="248.01 179.03 251.77 184.04 260.24 187.18 262.12 193.76 256.79 195.95 256.79 197.21 266.19 200.97 270.58 200.03 272.77 196.58 272.15 190.62 266.5 188.43 263.06 182.79 250.52 177.14 248.01 179.03" style="fill:#77FFC0;stroke:#263238;stroke-miterlimit:10"></polygon><path d="M329.51,322l-10-4.07-12.23-4.39h-9.71l-9.09-1.88-10,2.19-5.65.32h-3.44l-6.59,3.76-6.27,2.5L248,315.07l2.19-8.78-5.32-2.2h-6.27l-.94-2.82.62-5.64-2.19-3.13-4.39.62-1.25,3.14-5.33.31-4.7-5.64-1.88-7.52,4.7-8.78,9.09.63,2.51,2.19h3.76l4.7-2.82,4.07,1.25L253,285.6l2.19-.31-.63-7.21-1.88-3.76.63-6,11.6-5,1.56-11.59,5-4.08,4.08-7.21,3.13-.62,7.21-4.71.31-2.5-5,.31-.94-2.51h-3.45l-5.33,1.26,2.51-4.08,11-3.13,2.51-2.83,4.38,6.9,2.83,2.82,4.38-1.25L297.22,226l-6.58-4.7-7.52-8.46-7.84-5.33-7.52-1.25L264,202.53l-5-1.25-.63,1.25-.62,9.09,1.25,3.14-2.82,10-6.27-5,.94-4.38-6.58-3.14-2.82-3.45L243,201l9.09-6.59.62-7.52-3.45.31-2.19-2.82-.94-4.7-2.19-.31-1.26,5-3.45.63-1.56-11-2.51-1.57-4.39-1.88-5,2.51,6.26,6,1.26,5.33L222,175.89l-7.83-8.46-.63-8.47-8.15-2.5-6.27,4.07a48.62,48.62,0,0,1-4.7,2.51c-1.57.63-7.52,1.25-7.52,1.25l-1.26,5.33-7.21.31.63,3.45,11.6,1.88,5.95,6.59v11l-3.44,9.71.62,10.35L185,228.24l-1.88,22.88L186,264.29l4.07,10,4.7.62-1.56-5-2.51-3.76-1.57-6.9,2.82-.63,4.39,11.29,3.13,10v8.15l6,7.21L216,303.15l16.3,4.39,5,4.7,3.76,5,5.65,3.45,6.89,1.88,6.9-.32s-.31,3.14-.31,4.71-4.39,6.89-4.39,6.89l-3.45,6.27,2.51,6.9,6.89,2.82,9.72,10,4.39,1.88v4.7l.55,2.19a131.51,131.51,0,0,0,65.74-31l.16-2.27,8.47-15.36-4.08-2.82Z" style="fill:#77FFC0;stroke:#263238;stroke-miterlimit:10"></path><path d="M362.11,198.15l-3.45-6-4.39-6.9-1.25-9.4,5.64.94.31-3.13-4.07-.32,3.45-1.56,3.76-2.2v-3.13l-3.76-5-.81-6.74a132.13,132.13,0,0,0-155-37.56l7.23,5.12-4.39,5.64-6,1.25-.62,8.47-2.51.94L193.16,142l.31,5.64,5.33.63-2.2,5.32h5.33L211,142l.94-5,8.78-.63,2.19-3.76,9.09-.94.94-5.33,6.59-.31s4.7-2.51,5.64-2.51a38.22,38.22,0,0,1,5.33,1.57l4.7,3.76h6.58l5.65-3.45,7.2.63a7.81,7.81,0,0,0,3.45,1.25c1.57,0,6.27-2.19,6.27-2.19l9.09,5.64,3.76,2.82v4.71l4.71.62,1.56-2.82,4.08,1.88-.32,2.51-9.4,2.51,5.33,6.89,11.28,6.27,4.71,6.27,6.89.63,1.57-3.14,2.51-.62L322,153l-5-.63,4.08-1.25-3.77-5.33,5.33-.32,6.9,3.77,1.57,7.52,3.45,4.07,2.82,9.09,6.89,5v10.34l7.21,4.71-.31,3.44-.94,4.08,1.88,5.64.63,2.82,5.32.94,2.51-5.33Z" style="fill:#77FFC0;stroke:#263238;stroke-miterlimit:10"></path><path d="M366.18,166.57v1.8l-1.56,5,.94,4.39L369,179v6l-3.77-1.57-.94,16.93-3.76,6.9,2.51,8.77,4.07,3.76V236.7l4.08,13.17,4.39,10,7.21,1.88,2.51-6.27,1-.8a134.8,134.8,0,0,0,1-16.42A131.38,131.38,0,0,0,366.18,166.57Z" style="fill:#77FFC0;stroke:#263238;stroke-miterlimit:10"></path><polygon points="293.78 164.61 273.09 155.51 264 155.83 261.8 161.78 258.04 157.71 251.15 159.28 250.52 169.62 256.16 173.7 260.24 167.74 264.94 172.44 274.65 180.91 276.54 190 284.69 200.34 297.85 198.15 297.54 193.44 294.72 188.12 294.09 175.58 297.22 170.25 293.78 164.61" style="fill:#77FFC0;stroke:#263238;stroke-miterlimit:10"></polygon><polygon points="310.7 171.5 306 170.25 301.93 173.7 304.12 182.79 308.19 182.79 310.7 171.5" style="fill:#77FFC0;stroke:#263238;stroke-miterlimit:10"></polygon><polygon points="339.85 177.46 329.2 171.81 327 168.05 324.49 168.99 326.69 175.26 328.57 183.41 333.27 185.29 334.21 184.04 331.39 179.34 339.54 182.47 339.85 177.46" style="fill:#77FFC0;stroke:#263238;stroke-miterlimit:10"></polygon><polygon points="248.32 290.62 247.07 291.87 256.47 294.69 260.24 299.08 266.19 299.71 268.39 296.26 261.18 295 248.32 290.62" style="fill:#77FFC0;stroke:#263238;stroke-miterlimit:10"></polygon><polygon points="276.22 296.57 269.64 298.45 270.58 300.96 278.73 300.96 280.3 298.45 277.48 298.77 276.22 296.57" style="fill:#77FFC0;stroke:#263238;stroke-miterlimit:10"></polygon></g></svg>